<svg xmlns="http://www.w3.org/2000/svg" version="1.1" xmlns:xlink="http://www.w3.org/1999/xlink" xmlns:svgjs="http://svgjs.dev/svgjs" viewBox="0 0 1422 800"><defs><linearGradient x1="50%" y1="0%" x2="50%" y2="100%" id="oooscillate-grad"><stop stop-color="hsl(265, 55%, 30%)" stop-opacity="1" offset="0%"></stop><stop stop-color="hsl(265, 55%, 60%)" stop-opacity="1" offset="100%"></stop></linearGradient></defs><g stroke-width="1" stroke="url(#oooscillate-grad)" fill="none" stroke-linecap="round"><path d="M 0 1449 Q 355.5 90 711 400 Q 1066.5 710 1422 1449" opacity="0.05"></path><path d="M 0 1380 Q 355.5 90 711 400 Q 1066.5 710 1422 1380" opacity="0.10"></path><path d="M 0 1311 Q 355.5 90 711 400 Q 1066.5 710 1422 1311" opacity="0.15"></path><path d="M 0 1242 Q 355.5 90 711 400 Q 1066.5 710 1422 1242" opacity="0.19"></path><path d="M 0 1173 Q 355.5 90 711 400 Q 1066.5 710 1422 1173" opacity="0.24"></path><path d="M 0 1104 Q 355.5 90 711 400 Q 1066.5 710 1422 1104" opacity="0.29"></path><path d="M 0 1035 Q 355.5 90 711 400 Q 1066.5 710 1422 1035" opacity="0.33"></path><path d="M 0 966 Q 355.5 90 711 400 Q 1066.5 710 1422 966" opacity="0.38"></path><path d="M 0 897 Q 355.5 90 711 400 Q 1066.5 710 1422 897" opacity="0.43"></path><path d="M 0 828 Q 355.5 90 711 400 Q 1066.5 710 1422 828" opacity="0.48"></path><path d="M 0 759 Q 355.5 90 711 400 Q 1066.5 710 1422 759" opacity="0.53"></path><path d="M 0 690 Q 355.5 90 711 400 Q 1066.5 710 1422 690" opacity="0.57"></path><path d="M 0 621 Q 355.5 90 711 400 Q 1066.5 710 1422 621" opacity="0.62"></path><path d="M 0 552 Q 355.5 90 711 400 Q 1066.5 710 1422 552" opacity="0.67"></path><path d="M 0 483 Q 355.5 90 711 400 Q 1066.5 710 1422 483" opacity="0.71"></path><path d="M 0 414 Q 355.5 90 711 400 Q 1066.5 710 1422 414" opacity="0.76"></path><path d="M 0 345 Q 355.5 90 711 400 Q 1066.5 710 1422 345" opacity="0.81"></path><path d="M 0 276 Q 355.5 90 711 400 Q 1066.5 710 1422 276" opacity="0.86"></path><path d="M 0 207 Q 355.5 90 711 400 Q 1066.5 710 1422 207" opacity="0.91"></path><path d="M 0 138 Q 355.5 90 711 400 Q 1066.5 710 1422 138" opacity="0.95"></path></g></svg>