<svg xmlns="http://www.w3.org/2000/svg" version="1.1" xmlns:xlink="http://www.w3.org/1999/xlink" xmlns:svgjs="http://svgjs.dev/svgjs" width="1500" height="1046" viewBox="0 0 1500 1046"><g transform="matrix(1,0,0,1,0.39616403623460883,0)"><svg viewBox="0 0 258 180" data-background-color="#d89340" preserveAspectRatio="xMidYMid meet" height="1046" width="1500" xmlns="http://www.w3.org/2000/svg" xmlns:xlink="http://www.w3.org/1999/xlink"><g id="tight-bounds" transform="matrix(1,0,0,1,-0.06814021423235772,0)"><svg viewBox="0 0 258.13593249780456 180" height="180" width="258.13593249780456"><g><svg viewBox="0 0 356.12052 248.32534153510449" height="180" width="258.13593249780456"><g><svg viewBox="0 0 356.12052 125.77794545454546" height="125.77794545454546" width="356.12052"><g><path d="M0 125.778v-125.778h356.121v125.778z" fill="#595252" stroke="transparent" stroke-width="0" rx="0%" data-fill-palette-color="tertiary"></path><path d="M3.283 122.495v-119.212h349.554v119.212z" fill="#d89340" stroke="transparent" stroke-width="0" rx="0%" data-fill-palette-color="quaternary"></path><path d="M9.85 115.928v-106.078h336.421v106.078z" fill="#595252" stroke="transparent" stroke-width="0" data-fill-palette-color="tertiary"></path></g><g transform="matrix(1,0,0,1,19.69974,19.69974)" id="textblocktransform"><svg viewBox="0 0 316.72104 86.37846545454546" height="86.37846545454546" width="316.72104" id="textblock"><g><svg viewBox="0 0 316.72104 86.37846545454546" height="86.37846545454546" width="316.72104"><g transform="matrix(1,0,0,1,0,0)"><svg width="316.72104" viewBox="4.37 -43.19 206.76999999999998 56.39999999999999" height="86.37846545454546" data-palette-color="#d89340"><path d="M4.37-10.47L4.37-15.01 24.78-21.56 24.78-17.11 8.96-12.77 24.78-8.35 24.78-3.93 4.37-10.47ZM36.06-6.2L36.06-19.36Q36.06-20.65 36.42-21.78 36.79-22.9 37.41-23.74 38.03-24.58 38.89-25.07 39.74-25.56 40.7-25.56L40.7-25.56 57.79-25.56 57.79-4.17 62.94-4.17Q62.84-3.32 62.46-2.55 62.08-1.78 61.51-1.22 60.94-0.66 60.2-0.33 59.47 0 58.66 0L58.66 0 57.79 0 57.79 6.96Q57.79 8.25 57.42 9.39 57.05 10.52 56.42 11.36 55.78 12.21 54.95 12.71 54.12 13.21 53.17 13.21L53.17 13.21 41.33 13.21 41.33 8.98 51.95 8.98 51.95-2.71Q51.24-1.44 50.22-0.72 49.19 0 48.07 0L48.07 0 40.7 0Q39.74 0 38.89-0.49 38.03-0.98 37.41-1.82 36.79-2.66 36.42-3.78 36.06-4.91 36.06-6.2L36.06-6.2ZM41.87-4.17L51.95-4.17 51.95-21.39 41.87-21.39 41.87-4.17ZM68.48 0L68.45-23.97Q68.45-25.24 68.83-26.35 69.21-27.47 69.86-28.31 70.5-29.15 71.36-29.64 72.21-30.13 73.19-30.13L73.19-30.13 74.29-30.13 74.29-4.17 85.59-4.17 85.59-32.89 63.72-32.89Q63.79-33.74 64.17-34.5 64.55-35.25 65.12-35.82 65.69-36.38 66.43-36.69 67.16-37.01 67.99-37.01L67.99-37.01 86.74-37.01Q87.69-37.01 88.54-36.54 89.4-36.06 90.02-35.22 90.64-34.38 91.01-33.24 91.38-32.1 91.38-30.81L91.38-30.81 91.38-6.15Q91.38-4.88 91.01-3.76 90.64-2.64 90.02-1.81 89.4-0.98 88.56-0.49 87.71 0 86.76 0L86.76 0 68.48 0ZM101.04-6.2L101.04-19.36Q101.04-20.65 101.41-21.78 101.77-22.9 102.4-23.74 103.02-24.58 103.87-25.07 104.73-25.56 105.68-25.56L105.68-25.56 118.64-25.56Q119.6-25.56 120.44-25.07 121.28-24.58 121.92-23.74 122.55-22.9 122.92-21.78 123.28-20.65 123.28-19.36L123.28-19.36 123.28-11.23 106.88-11.23 106.88-4.17 124.8-4.17Q124.7-3.32 124.32-2.55 123.94-1.78 123.37-1.22 122.8-0.66 122.06-0.33 121.33 0 120.52 0L120.52 0 105.68 0Q104.73 0 103.87-0.49 103.02-0.98 102.4-1.82 101.77-2.66 101.41-3.78 101.04-4.91 101.04-6.2L101.04-6.2ZM106.88-14.65L117.45-14.65 117.45-21.39 106.88-21.39 106.88-14.65ZM137.32 0L128.48-25.56 134.41-25.56 141.08-4.1 147.74-25.56 153.65-25.56 144.79 0 137.32 0ZM158.07 4.3L158.07 4.3Q160.36-1.71 162.65-7.63 164.93-13.55 167.19-19.46 169.45-25.37 171.72-31.29 173.99-37.21 176.31-43.19L176.31-43.19 180.48-43.19 162.24 4.3 158.07 4.3ZM190.73-3.93L190.73-8.35 206.55-12.77 190.73-17.11 190.73-21.56 211.14-15.01 211.14-10.47 190.73-3.93Z" opacity="1" transform="matrix(1,0,0,1,0,0)" fill="#d89340" class="wordmark-text-0" data-fill-palette-color="quaternary" id="text-0"></path></svg></g></svg></g></svg></g></svg></g><g transform="matrix(1,0,0,1,59.215720065599996,132.34452545454545)"><svg viewBox="0 0 237.6890798688 115.98081608055902" height="115.98081608055902" width="237.6890798688"><g><svg xmlns="http://www.w3.org/2000/svg" xmlns:xlink="http://www.w3.org/1999/xlink" version="1.0" x="0" y="0" viewBox="0.2 25.7 99.6 48.599999999999994" enable-background="new 0 0 100 100" xml:space="preserve" height="115.98081608055902" width="237.6890798688" class="icon-icon-0" data-fill-palette-color="accent" id="icon-0"><path d="M1.5 36H9.2C9.9 36 10.5 35.4 10.5 34.7V27C10.5 26.3 9.9 25.7 9.2 25.7H1.5C0.8 25.7 0.2 26.3 0.2 27V34.7C0.2 35.5 0.8 36 1.5 36" fill="#e3dfd9" data-fill-palette-color="accent"></path><path d="M84.5 74.3H98.5C99.2 74.3 99.8 73.7 99.8 73V65.3C99.8 64.6 99.2 64 98.5 64H84.5C83.8 64 83.2 64.6 83.2 65.3V73C83.1 73.8 83.8 74.3 84.5 74.3" fill="#e3dfd9" data-fill-palette-color="accent"></path><path d="M79.3 74.3H20.5C19.8 74.3 19.2 73.7 19.2 73V65.3C19.2 64.6 19.8 64 20.5 64H79.3C80 64 80.6 64.6 80.6 65.3V73C80.6 73.8 80 74.3 79.3 74.3" fill="#e3dfd9" data-fill-palette-color="accent"></path><path d="M1.5 74.3H15.5C16.2 74.3 16.8 73.7 16.8 73V65.3C16.8 64.6 16.2 64 15.5 64H1.5C0.8 64 0.2 64.6 0.2 65.3V73C0.2 73.8 0.8 74.3 1.5 74.3" fill="#e3dfd9" data-fill-palette-color="accent"></path><path d="M1.5 48.8H14.3C15 48.8 15.6 48.2 15.6 47.5V39.8C15.6 39.1 15 38.5 14.3 38.5H1.5C0.8 38.5 0.2 39.1 0.2 39.8V47.5C0.2 48.2 0.8 48.8 1.5 48.8" fill="#e3dfd9" data-fill-palette-color="accent"></path><path d="M83.1 48.8H98.4C99.1 48.8 99.7 48.2 99.7 47.5V39.8C99.7 39.1 99.1 38.5 98.4 38.5H83.1C82.4 38.5 81.8 39.1 81.8 39.8V47.5C82 48.2 82.5 48.8 83.1 48.8" fill="#e3dfd9" data-fill-palette-color="accent"></path><path d="M14.2 36H21.9C22.6 36 23.2 35.4 23.2 34.7V27C23.2 26.3 22.6 25.7 21.9 25.7H14.2C13.5 25.7 12.9 26.3 12.9 27V34.7C13 35.5 13.5 36 14.2 36" fill="#e3dfd9" data-fill-palette-color="accent"></path><path d="M27 36H34.7C35.4 36 36 35.4 36 34.7V27C36 26.3 35.4 25.7 34.7 25.7H27C26.3 25.7 25.7 26.3 25.7 27V34.7C25.7 35.5 26.3 36 27 36" fill="#e3dfd9" data-fill-palette-color="accent"></path><path d="M39.8 36H47.5C48.2 36 48.8 35.4 48.8 34.7V27C48.8 26.3 48.2 25.7 47.5 25.7H39.8C39.1 25.7 38.5 26.3 38.5 27V34.7C38.5 35.5 39 36 39.8 36" fill="#e3dfd9" data-fill-palette-color="accent"></path><path d="M52.5 36H60.2C60.9 36 61.5 35.4 61.5 34.7V27C61.5 26.3 60.9 25.7 60.2 25.7H52.5C51.8 25.7 51.2 26.3 51.2 27V34.7C51.3 35.5 51.8 36 52.5 36" fill="#e3dfd9" data-fill-palette-color="accent"></path><path d="M65.3 36H73C73.7 36 74.3 35.4 74.3 34.7V27C74.3 26.3 73.7 25.7 73 25.7H65.3C64.6 25.7 64 26.3 64 27V34.7C64 35.5 64.5 36 65.3 36" fill="#e3dfd9" data-fill-palette-color="accent"></path><path d="M78 36H85.7C86.4 36 87 35.4 87 34.7V27C87 26.3 86.4 25.7 85.7 25.7H78C77.3 25.7 76.7 26.3 76.7 27V34.7C76.8 35.5 77.3 36 78 36" fill="#e3dfd9" data-fill-palette-color="accent"></path><path d="M90.8 36H98.5C99.2 36 99.8 35.4 99.8 34.7V27C99.8 26.3 99.2 25.7 98.5 25.7H90.8C90.1 25.7 89.5 26.3 89.5 27V34.7C89.5 35.5 90.1 36 90.8 36" fill="#e3dfd9" data-fill-palette-color="accent"></path><path d="M19.3 48.8H27C27.7 48.8 28.3 48.2 28.3 47.5V39.8C28.3 39.1 27.7 38.5 27 38.5H19.3C18.6 38.5 18 39.1 18 39.8V47.5C18 48.2 18.5 48.8 19.3 48.8" fill="#e3dfd9" data-fill-palette-color="accent"></path><path d="M32 48.8H39.7C40.4 48.8 41 48.2 41 47.5V39.8C41 39.1 40.4 38.5 39.7 38.5H32C31.3 38.5 30.7 39.1 30.7 39.8V47.5C30.8 48.2 31.3 48.8 32 48.8" fill="#e3dfd9" data-fill-palette-color="accent"></path><path d="M44.8 48.8H52.5C53.2 48.8 53.8 48.2 53.8 47.5V39.8C53.8 39.1 53.2 38.5 52.5 38.5H44.8C44.1 38.5 43.5 39.1 43.5 39.8V47.5C43.5 48.2 44.2 48.8 44.8 48.8" fill="#e3dfd9" data-fill-palette-color="accent"></path><path d="M57.6 48.8H65.3C66 48.8 66.6 48.2 66.6 47.5V39.8C66.6 39.1 66 38.5 65.3 38.5H57.6C56.9 38.5 56.3 39.1 56.3 39.8V47.5C56.3 48.2 57 48.8 57.6 48.8" fill="#e3dfd9" data-fill-palette-color="accent"></path><path d="M70.3 48.8H78C78.7 48.8 79.3 48.2 79.3 47.5V39.8C79.3 39.1 78.7 38.5 78 38.5H70.3C69.6 38.5 69 39.1 69 39.8V47.5C69.1 48.2 69.6 48.8 70.3 48.8" fill="#e3dfd9" data-fill-palette-color="accent"></path><path d="M1.5 61.6H9.2C9.9 61.6 10.5 61 10.5 60.3V52.6C10.5 51.9 9.9 51.3 9.2 51.3H1.5C0.8 51.3 0.2 51.9 0.2 52.6V60.3C0.2 61 0.8 61.6 1.5 61.6" fill="#e3dfd9" data-fill-palette-color="accent"></path><path d="M14.2 61.6H21.9C22.6 61.6 23.2 61 23.2 60.3V52.6C23.2 51.9 22.6 51.3 21.9 51.3H14.2C13.5 51.3 12.9 51.9 12.9 52.6V60.3C13 61 13.5 61.6 14.2 61.6" fill="#e3dfd9" data-fill-palette-color="accent"></path><path d="M27 61.6H34.7C35.4 61.6 36 61 36 60.3V52.6C36 51.9 35.4 51.3 34.7 51.3H27C26.3 51.3 25.7 51.9 25.7 52.6V60.3C25.7 61 26.3 61.6 27 61.6" fill="#e3dfd9" data-fill-palette-color="accent"></path><path d="M39.8 61.6H47.5C48.2 61.6 48.8 61 48.8 60.3V52.6C48.8 51.9 48.2 51.3 47.5 51.3H39.8C39.1 51.3 38.5 51.9 38.5 52.6V60.3C38.5 61 39 61.6 39.8 61.6" fill="#e3dfd9" data-fill-palette-color="accent"></path><path d="M52.5 61.6H60.2C60.9 61.6 61.5 61 61.5 60.3V52.6C61.5 51.9 60.9 51.3 60.2 51.3H52.5C51.8 51.3 51.2 51.9 51.2 52.6V60.3C51.3 61 51.8 61.6 52.5 61.6" fill="#e3dfd9" data-fill-palette-color="accent"></path><path d="M65.3 61.6H73C73.7 61.6 74.3 61 74.3 60.3V52.6C74.3 51.9 73.7 51.3 73 51.3H65.3C64.6 51.3 64 51.9 64 52.6V60.3C64 61 64.5 61.6 65.3 61.6" fill="#e3dfd9" data-fill-palette-color="accent"></path><path d="M78 61.6H85.7C86.4 61.6 87 61 87 60.3V52.6C87 51.9 86.4 51.3 85.7 51.3H78C77.3 51.3 76.7 51.9 76.7 52.6V60.3C76.8 61 77.3 61.6 78 61.6" fill="#e3dfd9" data-fill-palette-color="accent"></path><path d="M90.8 61.6H98.5C99.2 61.6 99.8 61 99.8 60.3V52.6C99.8 51.9 99.2 51.3 98.5 51.3H90.8C90.1 51.3 89.5 51.9 89.5 52.6V60.3C89.5 61 90.1 61.6 90.8 61.6" fill="#e3dfd9" data-fill-palette-color="accent"></path></svg></g></svg></g><g></g></svg></g><defs></defs></svg><rect width="258.13593249780456" height="180" fill="none" stroke="none" visibility="hidden"></rect></g></svg></g></svg>